<?xml version="1.0" encoding="UTF-8"?>
<svg width="32" height="32" viewBox="0 0 32 32" fill="none" xmlns="http://www.w3.org/2000/svg">
  <!-- 镜框 -->
  <path d="M4 12C4 10.8954 4.89543 10 6 10H12C13.1046 10 14 10.8954 14 12V14C14 15.1046 13.1046 16 12 16H6C4.89543 16 4 15.1046 4 14V12Z" fill="#1A1A1A"/>
  <path d="M18 12C18 10.8954 18.8954 10 20 10H26C27.1046 10 28 10.8954 28 12V14C28 15.1046 27.1046 16 26 16H20C18.8954 16 18 15.1046 18 14V12Z" fill="#1A1A1A"/>
  
  <!-- 镜片 -->
  <circle cx="9" cy="13" r="3" fill="#4A90E2"/>
  <circle cx="23" cy="13" r="3" fill="#4A90E2"/>
  
  <!-- 镜腿 -->
  <path d="M4 13L2 20" stroke="#1A1A1A" stroke-width="2" stroke-linecap="round"/>
  <path d="M28 13L30 20" stroke="#1A1A1A" stroke-width="2" stroke-linecap="round"/>
  
  <!-- 鼻梁 -->
  <path d="M14 13H18" stroke="#1A1A1A" stroke-width="2"/>
</svg>
